<svg data-v-423bf9ae="" xmlns="http://www.w3.org/2000/svg" viewBox="0 0 155.97056762438683 215" class="iconAboveSlogan"><!----><!----><!----><g data-v-423bf9ae="" id="0a78230a-265e-4d65-8f73-a8fbeb4bb1ee" fill="white" transform="matrix(5.381920337677002,0,0,5.381920337677002,-3.0063111782073975,84.10020446777344)"><path d="M4.59 8.20L4.59 8.20L4.59 8.20Q5.81 8.20 5.81 8.82L5.81 8.82L5.81 8.82Q5.81 9.53 4.41 9.53L4.41 9.53L4.41 9.53Q4.10 9.53 3.74 9.42L3.74 9.42L3.74 9.42Q3.33 9.70 3.12 10.12L3.12 10.12L3.12 10.12Q2.90 10.54 2.90 11.33L2.90 11.33L2.90 11.33Q2.90 12.12 3.52 12.50L3.52 12.50L3.52 12.50Q4.14 12.88 4.99 12.88L4.99 12.88L4.99 12.88Q5.84 12.88 6.36 12.61L6.36 12.61L6.36 12.61Q6.89 12.33 7.28 12.01L7.28 12.01L7.28 12.01Q7.67 11.69 7.92 11.42L7.92 11.42L7.92 11.42Q8.16 11.14 8.27 11.14L8.27 11.14L8.27 11.14Q8.39 11.14 8.46 11.29L8.46 11.29L8.46 11.29Q8.53 11.44 8.53 11.68L8.53 11.68L8.53 11.68Q8.53 12.80 7.29 13.64L7.29 13.64L7.29 13.64Q6.05 14.49 4.33 14.49L4.33 14.49L4.33 14.49Q1.64 14.49 0.84 12.94L0.84 12.94L0.84 12.94Q0.56 12.39 0.56 11.62L0.56 11.62L0.56 11.62Q0.56 9.62 2.56 8.82L2.56 8.82L2.56 8.82Q1.54 8.11 1.54 6.66L1.54 6.66L1.54 6.66Q1.54 5.98 1.92 5.39L1.92 5.39L1.92 5.39Q1.57 5.00 1.35 4.56L1.35 4.56L1.35 4.56Q1.13 4.13 1.13 3.91L1.13 3.91L1.13 3.91Q1.13 3.51 1.41 3.51L1.41 3.51L1.41 3.51Q1.61 3.51 1.90 3.81L1.90 3.81L1.90 3.81Q2.18 4.12 2.37 4.30L2.37 4.30L2.37 4.30Q2.55 4.48 2.74 4.59L2.74 4.59L2.74 4.59Q3.93 3.86 5.54 3.86L5.54 3.86L5.54 3.86Q7.15 3.86 7.69 4.76L7.69 4.76L7.69 4.76Q7.88 5.10 7.88 5.59L7.88 5.59L7.88 5.59Q7.88 6.33 7.24 6.83L7.24 6.83L7.24 6.83Q6.59 7.34 5.54 7.34L5.54 7.34L5.54 7.34Q4.49 7.34 3.58 6.66L3.58 6.66L3.58 6.66Q3.57 6.72 3.57 6.78L3.57 6.78L3.57 7.08L3.57 7.08Q3.57 7.34 3.73 7.68L3.73 7.68L3.73 7.68Q3.89 8.02 4.13 8.25L4.13 8.25L4.13 8.25Q4.34 8.20 4.59 8.20ZM6.33 5.80L6.33 5.80L6.33 5.80Q6.33 5.25 5.43 5.25L5.43 5.25L5.43 5.25Q4.54 5.25 3.99 5.80L3.99 5.80L3.99 5.80Q4.75 6.26 5.54 6.26L5.54 6.26L5.54 6.26Q6.33 6.26 6.33 5.80ZM23.00 11.14L23.00 11.14L23.00 11.14Q23.24 11.14 23.24 11.79L23.24 11.79L23.24 11.79Q23.24 12.14 22.95 12.63L22.95 12.63L22.95 12.63Q22.65 13.13 22.18 13.54L22.18 13.54L22.18 13.54Q21.71 13.96 21.14 14.22L21.14 14.22L21.14 14.22Q20.57 14.49 19.93 14.49L19.93 14.49L19.93 14.49Q19.29 14.49 18.94 14.08L18.94 14.08L18.94 14.08Q18.58 13.66 18.58 13.15L18.58 13.15L18.58 13.15Q18.58 12.64 18.75 12.00L18.75 12.00L18.75 12.00Q18.91 11.35 19.11 10.65L19.11 10.65L19.11 10.65Q19.64 8.79 19.66 8.04L19.66 8.04L19.66 8.04Q19.66 7.71 19.57 7.54L19.57 7.54L19.57 7.54Q19.49 7.36 19.25 7.36L19.25 7.36L19.25 7.36Q18.83 7.36 18.35 7.87L18.35 7.87L18.35 7.87Q17.88 8.37 17.46 9.16L17.46 9.16L17.46 9.16Q16.49 10.95 16.44 12.66L16.44 12.66L16.44 12.66Q16.46 12.85 16.49 13.05L16.49 13.05L16.49 13.05Q16.52 13.24 16.52 13.47L16.52 13.47L16.52 13.47Q16.52 13.92 16.08 14.29L16.08 14.29L16.08 14.29Q15.64 14.66 15.09 14.66L15.09 14.66L15.09 14.66Q14.77 14.66 14.62 14.34L14.62 14.34L14.62 14.34Q14.46 14.03 14.46 13.57L14.46 13.57L14.46 13.57Q14.46 13.10 14.67 12.31L14.67 12.31L14.67 12.31Q14.88 11.51 15.13 10.61L15.13 10.61L15.13 10.61Q15.81 8.25 15.82 7.08L15.82 7.08L15.82 7.08Q15.82 6.50 15.67 6.16L15.67 6.16L15.67 6.16Q15.53 5.82 15.11 5.82L15.11 5.82L15.11 5.82Q14.35 5.82 13.61 6.90L13.61 6.90L13.61 6.90Q12.87 7.98 12.28 10.25L12.28 10.25L12.28 10.25Q12.12 10.84 12.04 11.27L12.04 11.27L12.03 11.54L12.03 11.54Q12.29 12.82 12.29 13.22L12.29 13.22L12.29 13.22Q12.29 14.03 11.72 14.31L11.72 14.31L11.72 14.31Q11.45 14.43 11.21 14.55L11.21 14.55L11.21 14.55Q10.96 14.66 10.68 14.66L10.68 14.66L10.68 14.66Q9.98 14.66 9.98 13.32L9.98 13.32L9.98 13.32Q9.98 11.98 10.72 8.09L10.72 8.09L10.72 8.09Q10.99 6.69 10.99 6.52L10.99 6.52L10.99 6.52Q10.99 5.39 10.42 5.39L10.42 5.39L10.42 5.39Q10.22 5.39 10.06 5.50L10.06 5.50L10.06 5.50Q9.90 5.61 9.74 5.74L9.74 5.74L9.74 5.74Q9.58 5.87 9.41 5.98L9.41 5.98L9.41 5.98Q9.24 6.09 9.02 6.09L9.02 6.09L9.02 6.09Q8.81 6.09 8.81 5.71L8.81 5.71L8.81 5.71Q8.81 4.94 9.52 4.45L9.52 4.45L9.52 4.45Q10.21 3.95 11.19 3.95L11.19 3.95L11.19 3.95Q12.45 3.95 12.67 5.12L12.67 5.12L12.67 5.12Q12.73 5.47 12.75 5.87L12.75 5.87L12.75 5.87Q13.79 3.92 15.37 3.92L15.37 3.92L15.37 3.92Q17.09 3.92 17.35 5.57L17.35 5.57L17.35 5.57Q17.43 6.05 17.42 6.59L17.42 6.59L17.42 6.71L17.42 6.71Q18.33 5.45 19.57 5.45L19.57 5.45L19.57 5.45Q21.34 5.45 21.34 7.57L21.34 7.57L21.34 7.57Q21.34 8.50 21.05 9.74L21.05 9.74L21.05 9.74Q20.76 10.98 20.63 11.52L20.63 11.52L20.63 11.52Q20.50 12.05 20.50 12.35L20.50 12.35L20.50 12.35Q20.50 12.88 20.87 12.88L20.87 12.88L20.87 12.88Q21.24 12.88 22.64 11.42L22.64 11.42L22.64 11.42Q22.89 11.14 23.00 11.14ZM24.49 11.49L24.49 11.49L24.49 11.49Q24.49 12.71 25.52 12.71L25.52 12.71L25.52 12.71Q26.66 12.71 27.05 11.93L27.05 11.93L27.05 11.93Q27.19 11.65 27.19 11.21L27.19 11.21L27.19 11.21Q27.19 10.77 26.98 10.39L26.98 10.39L26.98 10.39Q26.63 9.79 25.77 9.06L25.77 9.06L25.77 9.06Q24.36 7.85 24.36 6.56L24.36 6.56L24.36 6.56Q24.36 5.26 25.17 4.56L25.17 4.56L25.17 4.56Q25.98 3.86 27.03 3.86L27.03 3.86L27.03 3.86Q28.08 3.86 28.70 4.40L28.70 4.40L28.70 4.40Q29.32 4.93 29.32 5.99L29.32 5.99L29.32 5.99Q29.32 6.69 28.85 7.21L28.85 7.21L28.85 7.21Q28.38 7.73 27.61 7.85L27.61 7.85L27.61 7.85Q27.96 8.15 28.31 8.46L28.31 8.46L28.31 8.46Q28.64 8.76 28.92 9.13L28.92 9.13L28.92 9.13Q29.54 9.95 29.54 11.10L29.54 11.10L29.54 11.10Q29.54 11.90 29.17 12.54L29.17 12.54L29.17 12.54Q28.80 13.19 28.20 13.63L28.20 13.63L28.20 13.63Q27.61 14.07 26.87 14.31L26.87 14.31L26.87 14.31Q26.12 14.55 25.48 14.55L25.48 14.55L25.48 14.55Q24.11 14.55 23.35 13.92L23.35 13.92L23.35 13.92Q22.47 13.20 22.47 11.86L22.47 11.86L22.47 11.86Q22.47 10.98 23.04 10.15L23.04 10.15L23.04 10.15Q23.62 9.32 24.26 9.32L24.26 9.32L24.26 9.32Q24.77 9.32 24.77 9.63L24.77 9.63L24.77 9.63Q24.77 10.08 24.63 10.52L24.63 10.52L24.63 10.52Q24.49 10.96 24.49 11.49ZM27.20 7.52L27.20 7.52L27.20 7.52Q28 6.72 28 5.85L28 5.85L28 5.85Q28 5.59 27.72 5.40L27.72 5.40L27.72 5.40Q27.41 5.24 27.08 5.24L27.08 5.24L27.08 5.24Q26.32 5.24 25.98 5.73L25.98 5.73L25.98 5.73Q26.15 6.33 26.48 6.75L26.48 6.75L26.48 6.75Q26.81 7.17 27.20 7.52Z"></path></g><!----><g data-v-423bf9ae="" id="7eae12bb-d993-4435-872f-dbad4c100cad" transform="matrix(4.8040032386779785,0,0,4.8040032386779785,1.1359481811523438,-31.231239318847656)" stroke="none" fill="white"><path d="M16 19.586l7.496-12.954H8.504zM7.496 12.414L0 25.368h14.992zM24.504 12.414l-7.496 12.954H32z"></path></g><!----><g data-v-423bf9ae="" id="3c10a58f-c3b9-4cac-838e-d0ae92da92c6" fill="white" transform="matrix(2.6110689640045166,0,0,2.6110689640045166,18.157989501953125,181.4457550048828)"><path d="M10.00 11.14L10.00 11.14L10.00 11.14Q10.23 11.14 10.23 11.79L10.23 11.79L10.23 11.79Q10.23 12.14 9.94 12.63L9.94 12.63L9.94 12.63Q9.65 13.13 9.18 13.54L9.18 13.54L9.18 13.54Q8.71 13.96 8.13 14.22L8.13 14.22L8.13 14.22Q7.56 14.49 7.04 14.49L7.04 14.49L7.04 14.49Q6.52 14.49 6.23 14.29L6.23 14.29L6.23 14.29Q5.94 14.10 5.77 13.76L5.77 13.76L5.77 13.76Q5.53 13.29 5.38 11.95L5.38 11.95L5.38 11.95Q5.22 10.61 5.07 10.08L5.07 10.08L5.07 10.08Q4.70 10.01 4.43 9.79L4.43 9.79L4.43 9.79Q4.16 9.58 4.16 9.26L4.16 9.26L4.16 9.26Q4.16 8.95 4.45 8.81L4.45 8.81L4.45 8.81Q4.73 8.67 5.10 8.67L5.10 8.67L5.10 8.67Q5.47 8.67 5.77 8.85L5.77 8.85L5.77 8.85Q6.16 8.53 6.41 8.09L6.41 8.09L6.41 8.09Q6.65 7.64 6.65 6.90L6.65 6.90L6.65 6.90Q6.65 6.15 6.15 5.70L6.15 5.70L6.15 5.70Q5.64 5.25 4.67 5.25L4.67 5.25L4.67 5.25Q3.70 5.25 3.18 5.40L3.18 5.40L3.18 5.40Q2.66 5.56 2.29 5.74L2.29 5.74L2.29 5.74Q1.92 5.92 1.63 6.08L1.63 6.08L1.63 6.08Q1.34 6.23 1.09 6.23L1.09 6.23L1.09 6.23Q0.84 6.23 0.84 6.07L0.84 6.07L0.84 6.07Q0.84 5.91 1.11 5.54L1.11 5.54L1.11 5.54Q1.37 5.18 1.89 4.82L1.89 4.82L1.89 4.82Q3.19 3.91 4.83 3.91L4.83 3.91L4.83 3.91Q6.47 3.92 7.53 4.54L7.53 4.54L7.53 4.54Q8.78 5.26 8.78 6.72L8.78 6.72L8.78 6.72Q8.79 7.92 8.15 8.72L8.15 8.72L8.15 8.72Q7.50 9.52 6.55 9.87L6.55 9.87L6.55 9.87Q6.76 10.33 6.90 10.86L6.90 10.86L6.90 10.86Q7.03 11.40 7.15 11.84L7.15 11.84L7.15 11.84Q7.28 12.29 7.44 12.59L7.44 12.59L7.44 12.59Q7.60 12.88 7.83 12.88L7.83 12.88L7.83 12.88Q8.06 12.88 8.39 12.61L8.39 12.61L8.39 12.61Q8.72 12.33 9.04 12.01L9.04 12.01L9.04 12.01Q9.37 11.69 9.63 11.42L9.63 11.42L9.63 11.42Q9.88 11.14 10.00 11.14ZM3.91 6.10L3.91 6.10L3.91 6.10Q4.09 6.10 4.09 6.58L4.09 6.58L4.09 6.58Q4.09 7.06 4.03 7.48L4.03 7.48L4.03 7.48Q3.91 8.29 3.71 8.99L3.71 8.99L3.71 8.99Q3.21 10.89 3.21 11.21L3.21 11.21L3.21 13.27L3.21 13.27Q3.21 14.03 2.63 14.31L2.63 14.31L2.63 14.31Q2.37 14.43 2.12 14.55L2.12 14.55L2.12 14.55Q1.88 14.66 1.57 14.66L1.57 14.66L1.57 14.66Q0.98 14.66 0.98 13.31L0.98 13.31L0.98 13.31Q0.98 11.96 1.61 9.90L1.61 9.90L1.61 9.90Q2.24 7.84 2.93 6.76L2.93 6.76L2.93 6.76Q3.07 6.55 3.33 6.33L3.33 6.33L3.33 6.33Q3.60 6.10 3.91 6.10ZM11.21 14.49L11.21 14.49L11.21 14.49Q9.81 14.49 9.81 11.87L9.81 11.87L9.81 11.87Q9.81 10.44 10.16 9.28L10.16 9.28L10.16 9.28Q10.71 7.49 11.40 7.49L11.40 7.49L11.40 7.49Q11.80 7.49 12.04 8.04L12.04 8.04L12.04 8.04Q12.24 8.46 12.22 8.86L12.22 8.86L12.22 8.86Q12.22 9.42 11.89 10.84L11.89 10.84L11.89 10.84Q11.56 12.07 11.56 12.36L11.56 12.36L11.56 12.36Q11.56 12.66 11.71 12.77L11.71 12.77L11.71 12.77Q11.86 12.88 12.06 12.88L12.06 12.88L12.06 12.88Q12.26 12.88 12.57 12.61L12.57 12.61L12.57 12.61Q12.88 12.35 13.19 12.03L13.19 12.03L13.19 12.03Q13.50 11.72 13.76 11.45L13.76 11.45L13.76 11.45Q14.01 11.19 14.11 11.19L14.11 11.19L14.11 11.19Q14.31 11.19 14.31 11.66L14.31 11.66L14.31 11.66Q14.31 12.64 13.32 13.57L13.32 13.57L13.32 13.57Q12.33 14.50 11.21 14.49ZM11.79 6.36L11.79 6.36L11.79 6.36Q11.41 5.80 11.41 5.15L11.41 5.15L11.41 5.15Q11.41 4.51 11.61 4.08L11.61 4.08L11.61 4.08Q11.82 3.65 12.00 3.45L12.00 3.45L12.00 3.45Q12.18 3.25 12.42 3.25L12.42 3.25L12.42 3.25Q12.81 3.25 13.13 3.83L13.13 3.83L13.13 3.83Q13.45 4.41 13.45 4.80L13.45 4.80L13.45 4.80Q13.45 5.53 12.94 5.94L12.94 5.94L12.94 5.94Q12.43 6.36 11.79 6.36ZM16.25 8.58L16.25 8.58L16.25 8.58Q16.98 7.76 18.12 7.76L18.12 7.76L18.12 7.76Q19.74 7.76 20.17 9.07L20.17 9.07L20.17 9.07Q20.30 9.46 20.30 9.94L20.30 9.94L20.30 9.94Q20.30 11.00 19.61 12.04L19.61 12.04L19.61 12.04Q18.91 13.08 17.93 13.44L17.93 13.44L18.10 13.44L18.10 13.44Q19.12 13.44 20.17 12.68L20.17 12.68L20.17 12.68Q20.85 12.21 21.23 11.70L21.23 11.70L21.23 11.70Q21.62 11.19 21.81 11.19L21.81 11.19L21.81 11.19Q22.01 11.19 22.01 11.63L22.01 11.63L22.01 11.63Q22.01 12.42 21.34 13.22L21.34 13.22L21.34 13.22Q20.33 14.36 18.76 14.56L18.76 14.56L18.76 14.56Q17.63 14.69 17.15 14.60L17.15 14.60L17.15 14.60Q16.67 14.52 16.42 14.39L16.42 14.39L16.42 14.39Q15.88 14.11 15.88 13.55L15.88 13.55L15.88 13.55Q15.88 13.24 16.00 12.99L16.00 12.99L16.00 12.99Q17.11 12.99 17.68 12.15L17.68 12.15L17.68 12.15Q18.26 11.31 18.26 10.05L18.26 10.05L18.26 10.05Q18.26 9.74 18.03 9.50L18.03 9.50L18.03 9.50Q17.81 9.25 17.44 9.25L17.44 9.25L17.44 9.25Q17.07 9.25 16.63 9.58L16.63 9.58L16.63 9.58Q16.20 9.90 15.94 10.38L15.94 10.38L15.94 10.38Q15.68 10.86 15.47 11.33L15.47 11.33L15.47 11.33Q15.26 11.80 15.13 12.52L15.13 12.52L15.13 12.52Q14.91 13.80 14.62 15.77L14.62 15.77L14.62 15.77Q14.34 17.74 14.27 17.89L14.27 17.89L14.27 17.89Q14.20 18.03 14.06 18.16L14.06 18.16L14.06 18.16Q13.92 18.28 13.76 18.28L13.76 18.28L13.76 18.28Q13.48 18.28 13.30 18.12L13.30 18.12L13.30 18.12Q12.80 17.68 12.71 17.45L12.71 17.45L12.71 17.45Q12.63 17.22 12.63 16.86L12.63 16.86L12.63 16.86Q12.63 15.48 13.09 13.01L13.09 13.01L13.09 13.01Q13.55 10.53 14.69 7.85L14.69 7.85L14.69 7.85Q14.85 7.46 15.28 7.46L15.28 7.46L15.28 7.46Q15.71 7.46 16.10 8.22L16.10 8.22L16.10 8.22Q16.21 8.41 16.25 8.58ZM25.97 9.74L25.97 9.74L25.97 9.74Q25.97 9.24 25.38 9.24L25.38 9.24L25.38 9.24Q24.78 9.24 24.21 10.16L24.21 10.16L24.21 10.16Q23.63 11.07 23.49 12.03L23.49 12.03L23.49 12.03Q23.52 12.35 23.55 12.67L23.55 12.67L23.55 12.67Q23.58 12.99 23.58 13.30L23.58 13.30L23.58 13.30Q23.58 14.04 23.09 14.31L23.09 14.31L23.09 14.31Q22.86 14.43 22.66 14.55L22.66 14.55L22.66 14.55Q22.46 14.66 22.19 14.66L22.19 14.66L22.19 14.66Q21.92 14.66 21.72 14.30L21.72 14.30L21.72 14.30Q21.52 13.94 21.52 13.19L21.52 13.19L21.52 13.19Q21.52 11.07 21.83 9.52L21.83 9.52L21.83 9.52Q22.30 7.11 23.72 4.37L23.72 4.37L23.72 4.37Q23.91 3.99 24.29 4.00L24.29 4.00L24.29 4.00Q24.67 4.00 24.91 4.52L24.91 4.52L24.91 4.52Q25.14 5.04 25.14 5.39L25.14 5.39L25.14 5.39Q25.13 5.74 25.03 6.07L25.03 6.07L25.03 6.07Q24.92 6.40 24.76 6.71L24.76 6.71L24.76 6.71Q24.60 7.03 24.40 7.36L24.40 7.36L24.40 7.36Q24.19 7.69 24.00 8.06L24.00 8.06L23.79 9.07L23.79 9.07Q24.33 8.16 25.26 7.85L25.26 7.85L25.26 7.85Q25.59 7.74 26.00 7.74L26.00 7.74L26.00 7.74Q26.95 7.74 27.44 8.17L27.44 8.17L27.44 8.17Q27.93 8.60 27.93 9.37L27.93 9.37L27.93 9.37Q27.93 10.15 27.73 10.95L27.73 10.95L27.73 10.95Q27.52 11.75 27.43 12.09L27.43 12.09L27.43 12.09Q27.34 12.43 27.34 12.66L27.34 12.66L27.34 12.66Q27.34 12.88 27.50 12.88L27.50 12.88L27.50 12.88Q27.71 12.88 28.01 12.61L28.01 12.61L28.01 12.61Q28.32 12.35 28.63 12.03L28.63 12.03L28.63 12.03Q28.94 11.72 29.20 11.45L29.20 11.45L29.20 11.45Q29.46 11.19 29.55 11.19L29.55 11.19L29.55 11.19Q29.75 11.19 29.75 11.66L29.75 11.66L29.75 11.66Q29.75 12.64 28.78 13.55L28.78 13.55L28.78 13.55Q27.16 14.50 26.71 14.50L26.71 14.50L26.71 14.50Q26.67 14.50 26.66 14.49L26.66 14.49L26.66 14.49Q25.54 14.49 25.54 12.70L25.54 12.70L25.54 12.70Q25.54 11.93 25.68 11.28L25.68 11.28L25.68 11.28Q25.83 10.64 25.90 10.35L25.90 10.35L25.90 10.35Q25.97 10.05 25.97 9.74ZM37.65 11.14L37.65 11.14L37.65 11.14Q37.90 11.14 37.90 11.79L37.90 11.79L37.90 11.79Q37.90 12.14 37.60 12.63L37.60 12.63L37.60 12.63Q37.31 13.13 36.84 13.54L36.84 13.54L36.84 13.54Q36.37 13.96 35.80 14.22L35.80 14.22L35.80 14.22Q35.22 14.49 34.68 14.49L34.68 14.49L34.68 14.49Q33.94 14.49 33.68 13.19L33.68 13.19L33.68 13.19Q33.32 13.79 32.73 14.18L32.73 14.18L32.73 14.18Q32.14 14.56 31.16 14.56L31.16 14.56L31.16 14.56Q30.17 14.56 29.57 13.94L29.57 13.94L29.57 13.94Q28.97 13.33 28.98 12.45L28.98 12.45L28.98 12.45Q28.98 10.07 30.56 8.69L30.56 8.69L30.56 8.69Q31.23 8.12 31.82 7.94L31.82 7.94L31.82 7.94Q32.40 7.76 33.04 7.76L33.04 7.76L33.04 7.76Q33.68 7.76 34.09 7.98L34.09 7.98L34.09 7.98Q34.29 7.57 34.54 7.57L34.54 7.57L34.54 7.57Q35.03 7.57 35.47 8.00L35.47 8.00L35.47 8.00Q35.91 8.43 35.91 8.81L35.91 8.81L35.91 8.81Q35.71 9.27 35.34 9.91L35.34 9.91L35.34 9.91Q35.22 10.56 35.22 11.72L35.22 11.72L35.22 11.72Q35.22 12.88 35.52 12.88L35.52 12.88L35.52 12.88Q35.88 12.88 37.28 11.42L37.28 11.42L37.28 11.42Q37.53 11.14 37.65 11.14ZM31.04 11.98L31.04 11.98L31.04 11.98Q31.04 13.06 31.84 13.06L31.84 13.06L31.84 13.06Q32.69 13.05 33.25 12.15L33.25 12.15L33.25 12.15Q33.45 11.84 33.57 11.40L33.57 11.40L33.57 11.40Q33.57 9.83 33.85 8.71L33.85 8.71L33.85 8.71Q32.72 8.93 31.88 9.80L31.88 9.80L31.88 9.80Q31.04 10.67 31.04 11.98ZM41.86 9.74L41.86 9.74L41.86 9.74Q41.86 9.24 41.27 9.24L41.27 9.24L41.27 9.24Q40.67 9.24 40.10 10.16L40.10 10.16L40.10 10.16Q39.52 11.07 39.38 12.03L39.38 12.03L39.38 12.03Q39.41 12.35 39.44 12.67L39.44 12.67L39.44 12.67Q39.47 12.99 39.47 13.30L39.47 13.30L39.47 13.30Q39.47 14.04 38.98 14.31L38.98 14.31L38.98 14.31Q38.75 14.43 38.55 14.55L38.55 14.55L38.55 14.55Q38.35 14.66 38.08 14.66L38.08 14.66L38.08 14.66Q37.81 14.66 37.61 14.30L37.61 14.30L37.61 14.30Q37.41 13.94 37.41 13.19L37.41 13.19L37.41 13.19Q37.41 11.07 37.72 9.52L37.72 9.52L37.72 9.52Q38.19 7.11 39.61 4.37L39.61 4.37L39.61 4.37Q39.80 3.99 40.18 4.00L40.18 4.00L40.18 4.00Q40.56 4.00 40.80 4.52L40.80 4.52L40.80 4.52Q41.03 5.04 41.03 5.39L41.03 5.39L41.03 5.39Q41.02 5.74 40.92 6.07L40.92 6.07L40.92 6.07Q40.81 6.40 40.65 6.71L40.65 6.71L40.65 6.71Q40.49 7.03 40.29 7.36L40.29 7.36L40.29 7.36Q40.08 7.69 39.89 8.06L39.89 8.06L39.68 9.07L39.68 9.07Q40.22 8.16 41.15 7.85L41.15 7.85L41.15 7.85Q41.48 7.74 41.89 7.74L41.89 7.74L41.89 7.74Q42.84 7.74 43.33 8.17L43.33 8.17L43.33 8.17Q43.82 8.60 43.82 9.37L43.82 9.37L43.82 9.37Q43.82 10.15 43.62 10.95L43.62 10.95L43.62 10.95Q43.41 11.75 43.32 12.09L43.32 12.09L43.32 12.09Q43.23 12.43 43.23 12.66L43.23 12.66L43.23 12.66Q43.23 12.88 43.39 12.88L43.39 12.88L43.39 12.88Q43.60 12.88 43.90 12.61L43.90 12.61L43.90 12.61Q44.21 12.35 44.52 12.03L44.52 12.03L44.52 12.03Q44.83 11.72 45.09 11.45L45.09 11.45L45.09 11.45Q45.35 11.19 45.44 11.19L45.44 11.19L45.44 11.19Q45.64 11.19 45.64 11.66L45.64 11.66L45.64 11.66Q45.64 12.64 44.67 13.55L44.67 13.55L44.67 13.55Q43.05 14.50 42.60 14.50L42.60 14.50L42.60 14.50Q42.56 14.50 42.55 14.49L42.55 14.49L42.55 14.49Q41.43 14.49 41.43 12.70L41.43 12.70L41.43 12.70Q41.43 11.93 41.57 11.28L41.57 11.28L41.57 11.28Q41.72 10.64 41.79 10.35L41.79 10.35L41.79 10.35Q41.86 10.05 41.86 9.74Z"></path></g></svg>