<svg data-v-423bf9ae="" xmlns="http://www.w3.org/2000/svg" viewBox="0 0 155.97056762438683 60" class="font"><!----><!----><!----><g data-v-423bf9ae="" id="328efca0-aa80-4c28-ab50-63f9edffff44" fill="black" transform="matrix(5.381920337677002,0,0,5.381920337677002,-3.0063111782073975,-18.899791717529297)"><path d="M4.59 8.20L4.59 8.20L4.59 8.20Q5.81 8.20 5.81 8.82L5.81 8.82L5.81 8.82Q5.81 9.53 4.41 9.53L4.41 9.53L4.41 9.53Q4.10 9.53 3.74 9.42L3.74 9.42L3.74 9.42Q3.33 9.70 3.12 10.12L3.12 10.12L3.12 10.12Q2.90 10.54 2.90 11.33L2.90 11.33L2.90 11.33Q2.90 12.12 3.52 12.50L3.52 12.50L3.52 12.50Q4.14 12.88 4.99 12.88L4.99 12.88L4.99 12.88Q5.84 12.88 6.36 12.61L6.36 12.61L6.36 12.61Q6.89 12.33 7.28 12.01L7.28 12.01L7.28 12.01Q7.67 11.69 7.92 11.42L7.92 11.42L7.92 11.42Q8.16 11.14 8.27 11.14L8.27 11.14L8.27 11.14Q8.39 11.14 8.46 11.29L8.46 11.29L8.46 11.29Q8.53 11.44 8.53 11.68L8.53 11.68L8.53 11.68Q8.53 12.80 7.29 13.64L7.29 13.64L7.29 13.64Q6.05 14.49 4.33 14.49L4.33 14.49L4.33 14.49Q1.64 14.49 0.84 12.94L0.84 12.94L0.84 12.94Q0.56 12.39 0.56 11.62L0.56 11.62L0.56 11.62Q0.56 9.62 2.56 8.82L2.56 8.82L2.56 8.82Q1.54 8.11 1.54 6.66L1.54 6.66L1.54 6.66Q1.54 5.98 1.92 5.39L1.92 5.39L1.92 5.39Q1.57 5.00 1.35 4.56L1.35 4.56L1.35 4.56Q1.13 4.13 1.13 3.91L1.13 3.91L1.13 3.91Q1.13 3.51 1.41 3.51L1.41 3.51L1.41 3.51Q1.61 3.51 1.90 3.81L1.90 3.81L1.90 3.81Q2.18 4.12 2.37 4.30L2.37 4.30L2.37 4.30Q2.55 4.48 2.74 4.59L2.74 4.59L2.74 4.59Q3.93 3.86 5.54 3.86L5.54 3.86L5.54 3.86Q7.15 3.86 7.69 4.76L7.69 4.76L7.69 4.76Q7.88 5.10 7.88 5.59L7.88 5.59L7.88 5.59Q7.88 6.33 7.24 6.83L7.24 6.83L7.24 6.83Q6.59 7.34 5.54 7.34L5.54 7.34L5.54 7.34Q4.49 7.34 3.58 6.66L3.58 6.66L3.58 6.66Q3.57 6.72 3.57 6.78L3.57 6.78L3.57 7.08L3.57 7.08Q3.57 7.34 3.73 7.68L3.73 7.68L3.73 7.68Q3.89 8.02 4.13 8.25L4.13 8.25L4.13 8.25Q4.34 8.20 4.59 8.20ZM6.33 5.80L6.33 5.80L6.33 5.80Q6.33 5.25 5.43 5.25L5.43 5.25L5.43 5.25Q4.54 5.25 3.99 5.80L3.99 5.80L3.99 5.80Q4.75 6.26 5.54 6.26L5.54 6.26L5.54 6.26Q6.33 6.26 6.33 5.80ZM23.00 11.14L23.00 11.14L23.00 11.14Q23.24 11.14 23.24 11.79L23.24 11.79L23.24 11.79Q23.24 12.14 22.95 12.63L22.95 12.63L22.95 12.63Q22.65 13.13 22.18 13.54L22.18 13.54L22.18 13.54Q21.71 13.96 21.14 14.22L21.14 14.22L21.14 14.22Q20.57 14.49 19.93 14.49L19.93 14.49L19.93 14.49Q19.29 14.49 18.94 14.08L18.94 14.08L18.94 14.08Q18.58 13.66 18.58 13.15L18.58 13.15L18.58 13.15Q18.58 12.64 18.75 12.00L18.75 12.00L18.75 12.00Q18.91 11.35 19.11 10.65L19.11 10.65L19.11 10.65Q19.64 8.79 19.66 8.04L19.66 8.04L19.66 8.04Q19.66 7.71 19.57 7.54L19.57 7.54L19.57 7.54Q19.49 7.36 19.25 7.36L19.25 7.36L19.25 7.36Q18.83 7.36 18.35 7.87L18.35 7.87L18.35 7.87Q17.88 8.37 17.46 9.16L17.46 9.16L17.46 9.16Q16.49 10.95 16.44 12.66L16.44 12.66L16.44 12.66Q16.46 12.85 16.49 13.05L16.49 13.05L16.49 13.05Q16.52 13.24 16.52 13.47L16.52 13.47L16.52 13.47Q16.52 13.92 16.08 14.29L16.08 14.29L16.08 14.29Q15.64 14.66 15.09 14.66L15.09 14.66L15.09 14.66Q14.77 14.66 14.62 14.34L14.62 14.34L14.62 14.34Q14.46 14.03 14.46 13.57L14.46 13.57L14.46 13.57Q14.46 13.10 14.67 12.31L14.67 12.31L14.67 12.31Q14.88 11.51 15.13 10.61L15.13 10.61L15.13 10.61Q15.81 8.25 15.82 7.08L15.82 7.08L15.82 7.08Q15.82 6.50 15.67 6.16L15.67 6.16L15.67 6.16Q15.53 5.82 15.11 5.82L15.11 5.82L15.11 5.82Q14.35 5.82 13.61 6.90L13.61 6.90L13.61 6.90Q12.87 7.98 12.28 10.25L12.28 10.25L12.28 10.25Q12.12 10.84 12.04 11.27L12.04 11.27L12.03 11.54L12.03 11.54Q12.29 12.82 12.29 13.22L12.29 13.22L12.29 13.22Q12.29 14.03 11.72 14.31L11.72 14.31L11.72 14.31Q11.45 14.43 11.21 14.55L11.21 14.55L11.21 14.55Q10.96 14.66 10.68 14.66L10.68 14.66L10.68 14.66Q9.98 14.66 9.98 13.32L9.98 13.32L9.98 13.32Q9.98 11.98 10.72 8.09L10.72 8.09L10.72 8.09Q10.99 6.69 10.99 6.52L10.99 6.52L10.99 6.52Q10.99 5.39 10.42 5.39L10.42 5.39L10.42 5.39Q10.22 5.39 10.06 5.50L10.06 5.50L10.06 5.50Q9.90 5.61 9.74 5.74L9.74 5.74L9.74 5.74Q9.58 5.87 9.41 5.98L9.41 5.98L9.41 5.98Q9.24 6.09 9.02 6.09L9.02 6.09L9.02 6.09Q8.81 6.09 8.81 5.71L8.81 5.71L8.81 5.71Q8.81 4.94 9.52 4.45L9.52 4.45L9.52 4.45Q10.21 3.95 11.19 3.95L11.19 3.95L11.19 3.95Q12.45 3.95 12.67 5.12L12.67 5.12L12.67 5.12Q12.73 5.47 12.75 5.87L12.75 5.87L12.75 5.87Q13.79 3.92 15.37 3.92L15.37 3.92L15.37 3.92Q17.09 3.92 17.35 5.57L17.35 5.57L17.35 5.57Q17.43 6.05 17.42 6.59L17.42 6.59L17.42 6.71L17.42 6.71Q18.33 5.45 19.57 5.45L19.57 5.45L19.57 5.45Q21.34 5.45 21.34 7.57L21.34 7.57L21.34 7.57Q21.34 8.50 21.05 9.74L21.05 9.74L21.05 9.74Q20.76 10.98 20.63 11.52L20.63 11.52L20.63 11.52Q20.50 12.05 20.50 12.35L20.50 12.35L20.50 12.35Q20.50 12.88 20.87 12.88L20.87 12.88L20.87 12.88Q21.24 12.88 22.64 11.42L22.64 11.42L22.64 11.42Q22.89 11.14 23.00 11.14ZM24.49 11.49L24.49 11.49L24.49 11.49Q24.49 12.71 25.52 12.71L25.52 12.71L25.52 12.71Q26.66 12.71 27.05 11.93L27.05 11.93L27.05 11.93Q27.19 11.65 27.19 11.21L27.19 11.21L27.19 11.21Q27.19 10.77 26.98 10.39L26.98 10.39L26.98 10.39Q26.63 9.79 25.77 9.06L25.77 9.06L25.77 9.06Q24.36 7.85 24.36 6.56L24.36 6.56L24.36 6.56Q24.36 5.26 25.17 4.56L25.17 4.56L25.17 4.56Q25.98 3.86 27.03 3.86L27.03 3.86L27.03 3.86Q28.08 3.86 28.70 4.40L28.70 4.40L28.70 4.40Q29.32 4.93 29.32 5.99L29.32 5.99L29.32 5.99Q29.32 6.69 28.85 7.21L28.85 7.21L28.85 7.21Q28.38 7.73 27.61 7.85L27.61 7.85L27.61 7.85Q27.96 8.15 28.31 8.46L28.31 8.46L28.31 8.46Q28.64 8.76 28.92 9.13L28.92 9.13L28.92 9.13Q29.54 9.95 29.54 11.10L29.54 11.10L29.54 11.10Q29.54 11.90 29.17 12.54L29.17 12.54L29.17 12.54Q28.80 13.19 28.20 13.63L28.20 13.63L28.20 13.63Q27.61 14.07 26.87 14.31L26.87 14.31L26.87 14.31Q26.12 14.55 25.48 14.55L25.48 14.55L25.48 14.55Q24.11 14.55 23.35 13.92L23.35 13.92L23.35 13.92Q22.47 13.20 22.47 11.86L22.47 11.86L22.47 11.86Q22.47 10.98 23.04 10.15L23.04 10.15L23.04 10.15Q23.62 9.32 24.26 9.32L24.26 9.32L24.26 9.32Q24.77 9.32 24.77 9.63L24.77 9.63L24.77 9.63Q24.77 10.08 24.63 10.52L24.63 10.52L24.63 10.52Q24.49 10.96 24.49 11.49ZM27.20 7.52L27.20 7.52L27.20 7.52Q28 6.72 28 5.85L28 5.85L28 5.85Q28 5.59 27.72 5.40L27.72 5.40L27.72 5.40Q27.41 5.24 27.08 5.24L27.08 5.24L27.08 5.24Q26.32 5.24 25.98 5.73L25.98 5.73L25.98 5.73Q26.15 6.33 26.48 6.75L26.48 6.75L26.48 6.75Q26.81 7.17 27.20 7.52Z"></path></g><!----><!----></svg>